<?xml version="1.0" encoding="utf-8"?>
<!-- Generator: Adobe Illustrator 26.0.1, SVG Export Plug-In . SVG Version: 6.00 Build 0)  -->
<svg version="1.1" id="Layer_1" xmlns="http://www.w3.org/2000/svg" xmlns:xlink="http://www.w3.org/1999/xlink" x="0px" y="0px"
	 viewBox="0 0 338.9 114" style="enable-background:new 0 0 338.9 114;" xml:space="preserve">
<style type="text/css">
	.st0{fill:#3B3835;}
	.st1{font-family:'Helvetica-Black';}
	.st2{font-size:21.6003px;}
	.st3{font-family:'Helvetica-Light';}
	.st4{font-size:18.9002px;}
	.st5{fill:none;stroke:#BEBBBB;stroke-miterlimit:10;}
	
		.st6{clip-path:url(#XMLID_00000030479093686928956810000016195656365870203015_);fill:url(#XMLID_00000123440713790677636160000008270934223005626253_);}
	
		.st7{clip-path:url(#XMLID_00000108294078246996358410000010389395129141867395_);fill:url(#XMLID_00000146483183235840461560000013514151782472200623_);}
	
		.st8{clip-path:url(#XMLID_00000174603948577197267300000002928233996294709934_);fill:url(#XMLID_00000061452900155497714420000007065625580661115815_);}
	
		.st9{clip-path:url(#XMLID_00000067206846636324063010000015886648299574836659_);fill:url(#XMLID_00000095303403666737563430000004808234432125683602_);}
	
		.st10{clip-path:url(#XMLID_00000157295750124794059960000009817844036170174609_);fill:url(#XMLID_00000088118225846158977250000008719251642773085078_);}
	
		.st11{clip-path:url(#XMLID_00000001658495867851216370000017168557782893194659_);fill:url(#XMLID_00000091014910842533955200000006996101734531311284_);}
	
		.st12{clip-path:url(#XMLID_00000045589489781846794520000017252361629631548074_);fill:url(#XMLID_00000093874418064480342920000016210796534153497520_);}
	
		.st13{clip-path:url(#XMLID_00000181056043431380422750000003954129106275180683_);fill:url(#XMLID_00000009550360702619244510000014210489935882058162_);}
	.st14{clip-path:url(#XMLID_00000181765746130137496220000015360131932978038963_);}
	.st15{clip-path:url(#XMLID_00000152964155081605573090000005937586255327133861_);}
	.st16{filter:url(#Adobe_OpacityMaskFilter);}
	
		.st17{clip-path:url(#XMLID_00000066514343068393058220000011996402546311148957_);fill:url(#XMLID_00000060031162455446773110000016885360010491062184_);}
	
		.st18{clip-path:url(#XMLID_00000066514343068393058220000011996402546311148957_);mask:url(#XMLID_00000062870466476251794170000013680896656781941427_);fill:url(#XMLID_00000111157874822777080010000001192268978131810467_);}
	.st19{clip-path:url(#XMLID_00000165919282642329333390000012817702330463305603_);}
	.st20{filter:url(#Adobe_OpacityMaskFilter_00000070836155140344523920000003991944998547117192_);}
	
		.st21{clip-path:url(#XMLID_00000106132122562147101740000015135533180998521013_);fill:url(#XMLID_00000028304619227470588390000008423619400263371196_);}
	
		.st22{clip-path:url(#XMLID_00000106132122562147101740000015135533180998521013_);mask:url(#XMLID_00000177459505746503947530000008411783041937382812_);fill:url(#XMLID_00000027564401630429850320000010062036713782651279_);}
	.st23{clip-path:url(#XMLID_00000022559916908660044860000013684192547291451304_);}
	.st24{filter:url(#Adobe_OpacityMaskFilter_00000111153638203655396720000012090600476982079625_);}
	
		.st25{clip-path:url(#XMLID_00000037691068499856705330000013724624209615111823_);fill:url(#XMLID_00000081614587967094933050000016043152596417885581_);}
	
		.st26{clip-path:url(#XMLID_00000037691068499856705330000013724624209615111823_);mask:url(#XMLID_00000038397109409587251740000008701849338023181222_);fill:url(#XMLID_00000001630190435580827300000001678957053687737789_);}
	.st27{clip-path:url(#XMLID_00000168090860188692538590000013915623683552159909_);}
	.st28{filter:url(#Adobe_OpacityMaskFilter_00000090989551033050896900000011024319136077001648_);}
	
		.st29{clip-path:url(#XMLID_00000011003181243304583070000007837807738510302888_);fill:url(#XMLID_00000012462621389130500630000000024361798092710819_);}
	
		.st30{clip-path:url(#XMLID_00000011003181243304583070000007837807738510302888_);mask:url(#XMLID_00000140717536224458161430000002545723100189560252_);fill:url(#XMLID_00000042729038629666428930000010627373178747820931_);}
	.st31{clip-path:url(#XMLID_00000102523013437181997390000009087051048145240457_);}
	.st32{filter:url(#Adobe_OpacityMaskFilter_00000088126888208333002930000004727274831835288213_);}
	
		.st33{clip-path:url(#XMLID_00000041992258074826223110000003280454645169011134_);fill:url(#XMLID_00000023264759411358242580000008094661185309325715_);}
	
		.st34{clip-path:url(#XMLID_00000041992258074826223110000003280454645169011134_);mask:url(#XMLID_00000173127885198308345460000003353046225100471226_);fill:url(#XMLID_00000023271186958506846240000002676771099710768028_);}
	.st35{clip-path:url(#XMLID_00000077283199497730304150000000707528762253615263_);}
	.st36{filter:url(#Adobe_OpacityMaskFilter_00000132770858461950138130000005024538731601844907_);}
	
		.st37{clip-path:url(#XMLID_00000154400025266556391690000001388334846948716215_);fill:url(#XMLID_00000013159522212363968390000007170336658794235327_);}
	
		.st38{clip-path:url(#XMLID_00000154400025266556391690000001388334846948716215_);mask:url(#XMLID_00000042715897356850008770000001913731339398060939_);fill:url(#XMLID_00000096018189727263862430000008583389174346636980_);}
	.st39{clip-path:url(#XMLID_00000090267300809461173530000009427162757734199483_);}
	.st40{filter:url(#Adobe_OpacityMaskFilter_00000083776020140420388600000012700399339554786227_);}
	
		.st41{clip-path:url(#XMLID_00000165217431773006612810000013940533829084548772_);fill:url(#XMLID_00000163068959544504479030000017702128053329146008_);}
	
		.st42{clip-path:url(#XMLID_00000165217431773006612810000013940533829084548772_);mask:url(#XMLID_00000009581810284262136280000014831693245441357449_);fill:url(#XMLID_00000100358545568687298550000014235585160148658569_);}
	.st43{clip-path:url(#XMLID_00000090255314394132219010000006741516696723339922_);}
	.st44{filter:url(#Adobe_OpacityMaskFilter_00000053520339569799529960000006215275724920388520_);}
	
		.st45{clip-path:url(#XMLID_00000072958869695922816580000014294845235750373809_);fill:url(#XMLID_00000119075246947565002560000000846769022403800753_);}
	
		.st46{clip-path:url(#XMLID_00000072958869695922816580000014294845235750373809_);mask:url(#XMLID_00000031170391367051501250000005992955823042671265_);fill:url(#XMLID_00000158724533793802696410000010753292603272148380_);}
	
		.st47{clip-path:url(#XMLID_00000067220897126709116230000002149596535157447330_);fill:url(#XMLID_00000073717674276046365740000011047373586298258357_);}
	.st48{clip-path:url(#XMLID_00000017480245295613863610000011915381143676945843_);}
	.st49{clip-path:url(#XMLID_00000061447639420298810670000000296082556072640444_);}
	.st50{filter:url(#Adobe_OpacityMaskFilter_00000149363935571694833790000006248500739830997148_);}
	
		.st51{clip-path:url(#XMLID_00000160873090629125577530000002490552677665270962_);fill:url(#XMLID_00000175280530661473873730000006035512924639415971_);}
	
		.st52{clip-path:url(#XMLID_00000160873090629125577530000002490552677665270962_);mask:url(#XMLID_00000036951000116839395320000011063253477924383411_);fill:url(#XMLID_00000105408540807178357340000003928156589180114823_);}
</style>
<text id="XMLID_246_" transform="matrix(1 0 0 1 144.6389 58.5806)" class="st0 st1 st2">Innovation </text>
<text id="XMLID_245_" transform="matrix(1 0 0 1 144.6389 77.6606)" class="st0 st3 st4">Management Solutions</text>
<line id="XMLID_244_" class="st5" x1="133.2" y1="40.8" x2="133.2" y2="80.8"/>
<g id="XMLID_241_">
	<defs>
		<path id="XMLID_242_" d="M88.4,72.8c0,0-8,2.5-9.6,4.6l3,5.5c0-0.3,9.6-3.8,10-4.3c0.7-0.7,2.7-2.3,0.2-6.5
			c-0.5-0.8-0.9-1.6-1.3-2.3C90.7,70.4,90.3,71.8,88.4,72.8"/>
	</defs>
	<clipPath id="XMLID_00000173864916119734205240000013224785771612180653_">
		<use xlink:href="#XMLID_242_"  style="overflow:visible;"/>
	</clipPath>
	
		<linearGradient id="XMLID_00000144306578070491390140000000888404424863119762_" gradientUnits="userSpaceOnUse" x1="553.3698" y1="463.7774" x2="554.3698" y2="463.7774" gradientTransform="matrix(90.0986 0 0 -90.0986 -49843.3945 41862.0039)">
		<stop  offset="0" style="stop-color:#8AC064"/>
		<stop  offset="0.5419" style="stop-color:#51BCBB"/>
		<stop  offset="0.803" style="stop-color:#0872B9"/>
		<stop  offset="0.9901" style="stop-color:#312D83"/>
		<stop  offset="1" style="stop-color:#312D83"/>
	</linearGradient>
	
		<rect id="XMLID_243_" x="78.8" y="69.8" style="clip-path:url(#XMLID_00000173864916119734205240000013224785771612180653_);fill:url(#XMLID_00000144306578070491390140000000888404424863119762_);" width="15.8" height="13.1"/>
</g>
<g id="XMLID_236_">
	<defs>
		<path id="XMLID_237_" d="M93.9,52.2C85.3,55.7,88,63.1,88,63.1c0.5,1.7,1.6,4.7,4.1,8.9c2.5,4.3,0.2,6.1-0.2,6.5
			c-0.5,0.5-10,4-10,4.3c0,0.3,12.8-4.3,12.8-4.3c1.9-1.4,10.8-4.4,3.8-15.1C92,53.6,98,50.8,99,50.4L93.9,52.2z M99,50.4l0.1,0
			C99.1,50.4,99.1,50.4,99,50.4"/>
	</defs>
	<clipPath id="XMLID_00000048471671595774882860000004975245832378159783_">
		<use xlink:href="#XMLID_237_"  style="overflow:visible;"/>
	</clipPath>
	
		<linearGradient id="XMLID_00000018941064926994057660000008674164194188144790_" gradientUnits="userSpaceOnUse" x1="553.3692" y1="463.7761" x2="554.3692" y2="463.7761" gradientTransform="matrix(90.0933 0 0 -90.0933 -49840.3867 41849.8555)">
		<stop  offset="0" style="stop-color:#8AC064"/>
		<stop  offset="0.5419" style="stop-color:#51BCBB"/>
		<stop  offset="0.803" style="stop-color:#0872B9"/>
		<stop  offset="0.9901" style="stop-color:#312D83"/>
		<stop  offset="1" style="stop-color:#312D83"/>
	</linearGradient>
	
		<rect id="XMLID_240_" x="81.8" y="50.4" style="clip-path:url(#XMLID_00000048471671595774882860000004975245832378159783_);fill:url(#XMLID_00000018941064926994057660000008674164194188144790_);" width="23.6" height="32.7"/>
</g>
<g id="XMLID_233_">
	<defs>
		<path id="XMLID_234_" d="M22.5,49.6c0,0-3,39.2,8,33.3l4.8-6.7c0,0-4.5-2.9-6.9-18.2l-1-6.3c0,0-0.1-3-2.3-3
			C24.3,48.8,23.5,49,22.5,49.6"/>
	</defs>
	<clipPath id="XMLID_00000046300089629115152690000006924722475136138657_">
		<use xlink:href="#XMLID_234_"  style="overflow:visible;"/>
	</clipPath>
	
		<linearGradient id="XMLID_00000171706949061124364110000016545054778337517199_" gradientUnits="userSpaceOnUse" x1="553.3696" y1="463.7479" x2="554.3696" y2="463.7479" gradientTransform="matrix(90.0974 0 0 -90.0974 -49842.6914 41851.2422)">
		<stop  offset="0" style="stop-color:#8AC064"/>
		<stop  offset="0.5419" style="stop-color:#51BCBB"/>
		<stop  offset="0.803" style="stop-color:#0872B9"/>
		<stop  offset="0.9901" style="stop-color:#312D83"/>
		<stop  offset="1" style="stop-color:#312D83"/>
	</linearGradient>
	
		<rect id="XMLID_235_" x="19.4" y="48.8" style="clip-path:url(#XMLID_00000046300089629115152690000006924722475136138657_);fill:url(#XMLID_00000171706949061124364110000016545054778337517199_);" width="15.8" height="40.1"/>
</g>
<g id="XMLID_230_">
	<defs>
		<path id="XMLID_231_" d="M26.3,38.7c-2.1,0-4.2,1.7-4.6,3.7c-0.4,2,0.9,3.6,3.1,3.6c2.1,0,4.2-1.6,4.6-3.7
			C29.8,40.3,28.4,38.7,26.3,38.7C26.3,38.7,26.3,38.7,26.3,38.7"/>
	</defs>
	<clipPath id="XMLID_00000041289242319000627290000017759798528042708376_">
		<use xlink:href="#XMLID_231_"  style="overflow:visible;"/>
	</clipPath>
	
		<linearGradient id="XMLID_00000003098202533401368470000009558012844493096105_" gradientUnits="userSpaceOnUse" x1="553.371" y1="463.7774" x2="554.371" y2="463.7774" gradientTransform="matrix(90.1103 0 0 -90.1103 -49849.9961 41833.4727)">
		<stop  offset="0" style="stop-color:#8AC064"/>
		<stop  offset="0.5419" style="stop-color:#51BCBB"/>
		<stop  offset="0.803" style="stop-color:#0872B9"/>
		<stop  offset="0.9901" style="stop-color:#312D83"/>
		<stop  offset="1" style="stop-color:#312D83"/>
	</linearGradient>
	
		<rect id="XMLID_232_" x="21.2" y="38.7" style="clip-path:url(#XMLID_00000041289242319000627290000017759798528042708376_);fill:url(#XMLID_00000003098202533401368470000009558012844493096105_);" width="8.5" height="7.3"/>
</g>
<g id="XMLID_227_">
	<defs>
		<path id="XMLID_228_" d="M26.3,82.7c3.4,2.8,5.5-1.1,6.4-2.4c0.8-1.1,7.6-12.7,10.4-18c2.6-4.8,4-3.1,4.3-2.7
			c-0.3-2.6-0.9-5.1-2.4-7.2c-0.4-0.6-0.8-1.3-1.6-1.6c0,0-0.1,0-0.1,0C36.8,55.2,26.3,82.7,26.3,82.7"/>
	</defs>
	<clipPath id="XMLID_00000075145155311157915750000018429664929203843204_">
		<use xlink:href="#XMLID_228_"  style="overflow:visible;"/>
	</clipPath>
	
		<linearGradient id="XMLID_00000142146712564129204720000012961147677774399633_" gradientUnits="userSpaceOnUse" x1="553.3689" y1="463.7674" x2="554.3689" y2="463.7674" gradientTransform="matrix(90.0906 0 0 -90.0906 -49838.9023 41849.2656)">
		<stop  offset="0" style="stop-color:#8AC064"/>
		<stop  offset="0.5419" style="stop-color:#51BCBB"/>
		<stop  offset="0.803" style="stop-color:#0872B9"/>
		<stop  offset="0.9901" style="stop-color:#312D83"/>
		<stop  offset="1" style="stop-color:#312D83"/>
	</linearGradient>
	
		<rect id="XMLID_229_" x="26.3" y="50.8" style="clip-path:url(#XMLID_00000075145155311157915750000018429664929203843204_);fill:url(#XMLID_00000142146712564129204720000012961147677774399633_);" width="21.1" height="34.7"/>
</g>
<g id="XMLID_224_">
	<defs>
		<path id="XMLID_225_" d="M98.3,50.8L98.3,50.8c-1.7,1-5.3,4.1-0.3,12.1c0-0.1-0.8-3.6,3.8-5.3c1.3-0.3,6.8-1.6,6.8-1.6l-2.5-7.9
			c0,0,0,0,0,0C105.6,48,98.3,50.8,98.3,50.8"/>
	</defs>
	<clipPath id="XMLID_00000057862693573270027630000017910613835644028602_">
		<use xlink:href="#XMLID_225_"  style="overflow:visible;"/>
	</clipPath>
	
		<linearGradient id="XMLID_00000119828806939865061040000014656872039302980771_" gradientUnits="userSpaceOnUse" x1="553.3701" y1="463.7774" x2="554.3701" y2="463.7774" gradientTransform="matrix(90.1019 0 0 -90.1019 -49845.2539 41842.6406)">
		<stop  offset="0" style="stop-color:#8AC064"/>
		<stop  offset="0.5419" style="stop-color:#51BCBB"/>
		<stop  offset="0.803" style="stop-color:#0872B9"/>
		<stop  offset="0.9901" style="stop-color:#312D83"/>
		<stop  offset="1" style="stop-color:#312D83"/>
	</linearGradient>
	
		<rect id="XMLID_226_" x="93.1" y="48" style="clip-path:url(#XMLID_00000057862693573270027630000017910613835644028602_);fill:url(#XMLID_00000119828806939865061040000014656872039302980771_);" width="15.6" height="14.8"/>
</g>
<g id="XMLID_221_">
	<defs>
		<path id="XMLID_222_" d="M73.9,48.6c-1.6,0.3-3,1.6-4.2,2.7c-2.2,2.1-4,4.5-5.5,7.1l0,0c0,0-0.1,0.1-0.2,0.3
			c-0.3,0.4-0.5,0.9-0.8,1.3c-1.7,2.9-5.1,8.8-5.7,10.5c-0.2,0.4-0.4,0.7-0.5,1.1c-0.3,0.6-0.3-0.3-0.4-1.1
			c-0.1-1.1-0.9-9.9-1.5-11.5c0,0,0,0,0,0c-0.5-2.7-1.2-5.3-2.6-7.5c-0.7-1.1-1.6-2.4-3.1-2.7c-1.5-0.3-3.3,0.5-4.7,1.3
			c-0.4,0.2-0.8,0.6-1.2,0.9c0.8,0.3,1.1,0.9,1.6,1.6c1.7,2.4,2.2,5.5,2.5,8.6l0.6,13.5c0.1,2.5,0.9,9,6.2,9.1
			c6.8-0.1,10.3-10.4,10.3-10.4l5.8-12.4c1.6-3.1,3.5-6.1,6.2-8.6c0.7-0.6,1.4-1.3,2.3-1.6c-0.3-0.3-0.5-0.6-0.8-0.9
			c-0.9-0.7-2.1-1.3-3.5-1.3C74.4,48.5,74.1,48.5,73.9,48.6"/>
	</defs>
	<clipPath id="XMLID_00000106119519868403470420000013069983768370019504_">
		<use xlink:href="#XMLID_222_"  style="overflow:visible;"/>
	</clipPath>
	
		<linearGradient id="XMLID_00000166647967616857732410000007854202927150730131_" gradientUnits="userSpaceOnUse" x1="553.3692" y1="463.7778" x2="554.3692" y2="463.7778" gradientTransform="matrix(90.0935 0 0 -90.0935 -49840.5039 41849.3477)">
		<stop  offset="0" style="stop-color:#8AC064"/>
		<stop  offset="0.5419" style="stop-color:#51BCBB"/>
		<stop  offset="0.803" style="stop-color:#0872B9"/>
		<stop  offset="0.9901" style="stop-color:#312D83"/>
		<stop  offset="1" style="stop-color:#312D83"/>
	</linearGradient>
	
		<rect id="XMLID_223_" x="43.5" y="48.4" style="clip-path:url(#XMLID_00000106119519868403470420000013069983768370019504_);fill:url(#XMLID_00000166647967616857732410000007854202927150730131_);" width="35.5" height="35.1"/>
</g>
<g id="XMLID_218_">
	<defs>
		<path id="XMLID_219_" d="M78.9,50.7c-0.9,0.3-1.5,0.9-2.2,1.6c-2.3,2.1-4,4.6-5.5,7.2c0.4-0.4,2.6-2.1,3.1,2.7
			c0.6,5.3,1.7,17.5,2,18.6c0.4,1.3-0.2,4.1,5.5,2.1C81.8,82.9,83.7,55,78.9,50.7C78.9,50.6,78.9,50.6,78.9,50.7"/>
	</defs>
	<clipPath id="XMLID_00000025419393066534964540000000243063451569769642_">
		<use xlink:href="#XMLID_219_"  style="overflow:visible;"/>
	</clipPath>
	
		<linearGradient id="XMLID_00000120555163830861205260000005787539904696750014_" gradientUnits="userSpaceOnUse" x1="553.369" y1="463.7703" x2="554.369" y2="463.7703" gradientTransform="matrix(90.0919 0 0 -90.0919 -49839.6055 41849.6719)">
		<stop  offset="0" style="stop-color:#8AC064"/>
		<stop  offset="0.5419" style="stop-color:#51BCBB"/>
		<stop  offset="0.803" style="stop-color:#0872B9"/>
		<stop  offset="0.9901" style="stop-color:#312D83"/>
		<stop  offset="1" style="stop-color:#312D83"/>
	</linearGradient>
	
		<rect id="XMLID_220_" x="71.2" y="50.6" style="clip-path:url(#XMLID_00000025419393066534964540000000243063451569769642_);fill:url(#XMLID_00000120555163830861205260000005787539904696750014_);" width="12.5" height="34.2"/>
</g>
<g id="XMLID_152_">
	<defs>
		<rect id="XMLID_153_" x="-304.7" y="-111.2" width="841.9" height="595.3"/>
	</defs>
	<clipPath id="XMLID_00000137130724285565254780000002380679595898277764_">
		<use xlink:href="#XMLID_153_"  style="overflow:visible;"/>
	</clipPath>
	<g id="XMLID_210_" style="clip-path:url(#XMLID_00000137130724285565254780000002380679595898277764_);">
		<g id="XMLID_211_">
			<defs>
				<rect id="XMLID_212_" x="78.8" y="69.8" width="14.5" height="13.1"/>
			</defs>
			<clipPath id="XMLID_00000172404668886469695400000009888979176632924605_">
				<use xlink:href="#XMLID_212_"  style="overflow:visible;"/>
			</clipPath>
			<g id="XMLID_213_" style="clip-path:url(#XMLID_00000172404668886469695400000009888979176632924605_);">
				<defs>
					<path id="XMLID_214_" d="M81.8,82.9c0-0.3,9.6-3.8,10-4.3c0.7-0.7,2.7-2.3,0.2-6.5c-0.5-0.8-0.9-1.6-1.3-2.3
						c-0.1,0.7-0.5,2-2.4,3.1c0,0-8,2.5-9.6,4.6L81.8,82.9z"/>
				</defs>
				<clipPath id="XMLID_00000091703030173160758400000014209613989672921744_">
					<use xlink:href="#XMLID_214_"  style="overflow:visible;"/>
				</clipPath>
				<defs>
					<filter id="Adobe_OpacityMaskFilter" filterUnits="userSpaceOnUse" x="78" y="68.8" width="17.4" height="15.1">
						<feColorMatrix  type="matrix" values="1 0 0 0 0  0 1 0 0 0  0 0 1 0 0  0 0 0 1 0"/>
					</filter>
				</defs>
				
					<mask maskUnits="userSpaceOnUse" x="78" y="68.8" width="17.4" height="15.1" id="XMLID_00000052105452820534249940000002982394377016243373_">
					<g id="XMLID_215_" class="st16">
						
							<linearGradient id="XMLID_00000115509453059272844760000007761997093034486949_" gradientUnits="userSpaceOnUse" x1="503.4026" y1="466.3433" x2="504.4026" y2="466.3433" gradientTransform="matrix(14.5231 -0.908 -0.908 -14.5231 -6808.771 7306.6401)">
							<stop  offset="0" style="stop-color:#000000"/>
							<stop  offset="1" style="stop-color:#FFFFFF"/>
						</linearGradient>
						
							<polygon id="XMLID_216_" style="clip-path:url(#XMLID_00000091703030173160758400000014209613989672921744_);fill:url(#XMLID_00000115509453059272844760000007761997093034486949_);" points="
							78,69.8 94.5,68.8 95.4,82.8 78.9,83.8 						"/>
					</g>
				</mask>
				
					<linearGradient id="XMLID_00000150079132201386456040000014321086165244087436_" gradientUnits="userSpaceOnUse" x1="503.4026" y1="466.3433" x2="504.4026" y2="466.3433" gradientTransform="matrix(14.5231 -0.908 -0.908 -14.5231 -6808.771 7306.6401)">
					<stop  offset="0" style="stop-color:#FFFFFF"/>
					<stop  offset="1" style="stop-color:#3B3835"/>
				</linearGradient>
				
					<polygon id="XMLID_217_" style="clip-path:url(#XMLID_00000091703030173160758400000014209613989672921744_);mask:url(#XMLID_00000052105452820534249940000002982394377016243373_);fill:url(#XMLID_00000150079132201386456040000014321086165244087436_);" points="
					78,69.8 94.5,68.8 95.4,82.8 78.9,83.8 				"/>
			</g>
		</g>
	</g>
	<g id="XMLID_202_" style="clip-path:url(#XMLID_00000137130724285565254780000002380679595898277764_);">
		<g id="XMLID_203_">
			<defs>
				<rect id="XMLID_204_" x="81.8" y="50.4" width="19.2" height="32.5"/>
			</defs>
			<clipPath id="XMLID_00000147202269415579047110000005639141603843793313_">
				<use xlink:href="#XMLID_204_"  style="overflow:visible;"/>
			</clipPath>
			<g id="XMLID_205_" style="clip-path:url(#XMLID_00000147202269415579047110000005639141603843793313_);">
				<defs>
					<path id="XMLID_206_" d="M99.1,50.4c0,0-7.7,2.4-0.7,13c7,10.7-1.9,13.7-3.8,15.1c0,0-12.8,4.5-12.8,4.3c0-0.3,9.5-3.8,10-4.3
						c0.5-0.4,2.7-2.3,0.2-6.5c-2.5-4.3-3.6-7.2-4.1-8.9c0,0-2.7-7.3,5.9-10.8L99.1,50.4z"/>
				</defs>
				<clipPath id="XMLID_00000134239055701570985990000005478570782691136650_">
					<use xlink:href="#XMLID_206_"  style="overflow:visible;"/>
				</clipPath>
				<defs>
					
						<filter id="Adobe_OpacityMaskFilter_00000133512106516397871560000011166513072744913304_" filterUnits="userSpaceOnUse" x="79.8" y="48.9" width="27.7" height="35.6">
						<feColorMatrix  type="matrix" values="1 0 0 0 0  0 1 0 0 0  0 0 1 0 0  0 0 0 1 0"/>
					</filter>
				</defs>
				
					<mask maskUnits="userSpaceOnUse" x="79.8" y="48.9" width="27.7" height="35.6" id="XMLID_00000077308017089299480410000008219162303284707488_">
					<g id="XMLID_207_" style="filter:url(#Adobe_OpacityMaskFilter_00000133512106516397871560000011166513072744913304_);">
						
							<linearGradient id="XMLID_00000026133379490660564740000002558308122661807010_" gradientUnits="userSpaceOnUse" x1="519.6172" y1="465.6912" x2="520.6172" y2="465.6912" gradientTransform="matrix(19.9513 -1.2473 -1.2473 -19.9513 -9705.2783 10006.8174)">
							<stop  offset="0" style="stop-color:#000000"/>
							<stop  offset="1" style="stop-color:#FFFFFF"/>
						</linearGradient>
						
							<polygon id="XMLID_208_" style="clip-path:url(#XMLID_00000134239055701570985990000005478570782691136650_);fill:url(#XMLID_00000026133379490660564740000002558308122661807010_);" points="
							79.8,50.5 105.3,48.9 107.5,83 81.9,84.6 						"/>
					</g>
				</mask>
				
					<linearGradient id="XMLID_00000069385751740998000310000005511509860886522245_" gradientUnits="userSpaceOnUse" x1="519.6172" y1="465.6912" x2="520.6172" y2="465.6912" gradientTransform="matrix(19.9513 -1.2473 -1.2473 -19.9513 -9705.2783 10006.8174)">
					<stop  offset="0" style="stop-color:#FFFFFF"/>
					<stop  offset="1" style="stop-color:#3B3835"/>
				</linearGradient>
				
					<polygon id="XMLID_209_" style="clip-path:url(#XMLID_00000134239055701570985990000005478570782691136650_);mask:url(#XMLID_00000077308017089299480410000008219162303284707488_);fill:url(#XMLID_00000069385751740998000310000005511509860886522245_);" points="
					79.8,50.5 105.3,48.9 107.5,83 81.9,84.6 				"/>
			</g>
		</g>
	</g>
	<g id="XMLID_194_" style="clip-path:url(#XMLID_00000137130724285565254780000002380679595898277764_);">
		<g id="XMLID_195_">
			<defs>
				<rect id="XMLID_196_" x="21.6" y="38.7" width="7.8" height="7.3"/>
			</defs>
			<clipPath id="XMLID_00000038378670420068225160000002040103994546809261_">
				<use xlink:href="#XMLID_196_"  style="overflow:visible;"/>
			</clipPath>
			<g id="XMLID_197_" style="clip-path:url(#XMLID_00000038378670420068225160000002040103994546809261_);">
				<defs>
					<path id="XMLID_198_" d="M29.3,42.3c-0.4,2-2.5,3.7-4.6,3.7c-2.1,0-3.5-1.6-3.1-3.6c0.4-2,2.5-3.6,4.6-3.7
						C28.4,38.7,29.8,40.3,29.3,42.3"/>
				</defs>
				<clipPath id="XMLID_00000157996897220424575140000004399325291417643394_">
					<use xlink:href="#XMLID_198_"  style="overflow:visible;"/>
				</clipPath>
				<defs>
					
						<filter id="Adobe_OpacityMaskFilter_00000175285295143981468770000011154654092362459583_" filterUnits="userSpaceOnUse" x="19.8" y="38.6" width="11.5" height="7.4">
						<feColorMatrix  type="matrix" values="1 0 0 0 0  0 1 0 0 0  0 0 1 0 0  0 0 0 1 0"/>
					</filter>
				</defs>
				
					<mask maskUnits="userSpaceOnUse" x="19.8" y="38.6" width="11.5" height="7.4" id="XMLID_00000036958923927831738960000016022371138065998488_">
					<g id="XMLID_199_" style="filter:url(#Adobe_OpacityMaskFilter_00000175285295143981468770000011154654092362459583_);">
						
							<linearGradient id="XMLID_00000109727059610169448430000015702638775396701623_" gradientUnits="userSpaceOnUse" x1="450.1581" y1="461.8008" x2="451.1581" y2="461.8008" gradientTransform="matrix(7.6592 -2.833900e-02 1.5433 -7.6653 -4138.873 3594.9475)">
							<stop  offset="0" style="stop-color:#000000"/>
							<stop  offset="1" style="stop-color:#FFFFFF"/>
						</linearGradient>
						
							<polygon id="XMLID_200_" style="clip-path:url(#XMLID_00000157996897220424575140000004399325291417643394_);fill:url(#XMLID_00000109727059610169448430000015702638775396701623_);" points="
							21.2,38.7 31.2,38.6 29.8,46 19.8,46 						"/>
					</g>
				</mask>
				
					<linearGradient id="XMLID_00000023245523118730218530000008601583200455252110_" gradientUnits="userSpaceOnUse" x1="450.1581" y1="461.8008" x2="451.1581" y2="461.8008" gradientTransform="matrix(7.6592 -2.833900e-02 1.5433 -7.6653 -4138.873 3594.9478)">
					<stop  offset="0" style="stop-color:#FFFFFF"/>
					<stop  offset="1" style="stop-color:#3B3835"/>
				</linearGradient>
				
					<polygon id="XMLID_201_" style="clip-path:url(#XMLID_00000157996897220424575140000004399325291417643394_);mask:url(#XMLID_00000036958923927831738960000016022371138065998488_);fill:url(#XMLID_00000023245523118730218530000008601583200455252110_);" points="
					21.2,38.7 31.2,38.6 29.8,46 19.8,46 				"/>
			</g>
		</g>
	</g>
	<g id="XMLID_186_" style="clip-path:url(#XMLID_00000137130724285565254780000002380679595898277764_);">
		<g id="XMLID_187_">
			<defs>
				<rect id="XMLID_188_" x="26.3" y="50.8" width="21.1" height="32.9"/>
			</defs>
			<clipPath id="XMLID_00000183220892027750997660000018340671649373363095_">
				<use xlink:href="#XMLID_188_"  style="overflow:visible;"/>
			</clipPath>
			<g id="XMLID_189_" style="clip-path:url(#XMLID_00000183220892027750997660000018340671649373363095_);">
				<defs>
					<path id="XMLID_190_" d="M43.4,50.8C43.4,50.8,43.5,50.8,43.4,50.8c0.8,0.3,1.2,0.9,1.6,1.6c1.4,2.1,2,4.6,2.4,7.2
						c-0.2-0.3-1.7-2.1-4.3,2.7c-2.8,5.3-9.6,16.8-10.4,18c-1,1.3-3,5.2-6.4,2.4C26.3,82.7,36.8,55.2,43.4,50.8"/>
				</defs>
				<clipPath id="XMLID_00000143608443707063744880000007947057214545722295_">
					<use xlink:href="#XMLID_190_"  style="overflow:visible;"/>
				</clipPath>
				<defs>
					
						<filter id="Adobe_OpacityMaskFilter_00000004522614715345994780000003022165576370898359_" filterUnits="userSpaceOnUse" x="19.3" y="50.7" width="35.1" height="34.9">
						<feColorMatrix  type="matrix" values="1 0 0 0 0  0 1 0 0 0  0 0 1 0 0  0 0 0 1 0"/>
					</filter>
				</defs>
				
					<mask maskUnits="userSpaceOnUse" x="19.3" y="50.7" width="35.1" height="34.9" id="XMLID_00000173154069376531344540000010392220247814138247_">
					<g id="XMLID_191_" style="filter:url(#Adobe_OpacityMaskFilter_00000004522614715345994780000003022165576370898359_);">
						
							<linearGradient id="XMLID_00000137128888139874112680000014614398571716961429_" gradientUnits="userSpaceOnUse" x1="510.601" y1="462.9241" x2="511.601" y2="462.9241" gradientTransform="matrix(16.4941 -6.102829e-02 3.3236 -16.5073 -9931.2754 7740.9956)">
							<stop  offset="0" style="stop-color:#000000"/>
							<stop  offset="1" style="stop-color:#FFFFFF"/>
						</linearGradient>
						
							<polygon id="XMLID_192_" style="clip-path:url(#XMLID_00000143608443707063744880000007947057214545722295_);fill:url(#XMLID_00000137128888139874112680000014614398571716961429_);" points="
							26.3,50.8 54.4,50.7 47.4,85.5 19.3,85.6 						"/>
					</g>
				</mask>
				
					<linearGradient id="XMLID_00000114046090532869268180000006833844318632060093_" gradientUnits="userSpaceOnUse" x1="510.601" y1="462.9241" x2="511.601" y2="462.9241" gradientTransform="matrix(16.4941 -6.102830e-02 3.3236 -16.5073 -9931.2764 7740.9966)">
					<stop  offset="0" style="stop-color:#FFFFFF"/>
					<stop  offset="1" style="stop-color:#3B3835"/>
				</linearGradient>
				
					<polygon id="XMLID_193_" style="clip-path:url(#XMLID_00000143608443707063744880000007947057214545722295_);mask:url(#XMLID_00000173154069376531344540000010392220247814138247_);fill:url(#XMLID_00000114046090532869268180000006833844318632060093_);" points="
					26.3,50.8 54.4,50.7 47.4,85.5 19.3,85.6 				"/>
			</g>
		</g>
	</g>
	<g id="XMLID_178_" style="clip-path:url(#XMLID_00000137130724285565254780000002380679595898277764_);">
		<g id="XMLID_179_">
			<defs>
				<rect id="XMLID_180_" x="21.9" y="48.8" width="12.8" height="34.9"/>
			</defs>
			<clipPath id="XMLID_00000168110245159310360270000011228088063564551301_">
				<use xlink:href="#XMLID_180_"  style="overflow:visible;"/>
			</clipPath>
			<g id="XMLID_181_" style="clip-path:url(#XMLID_00000168110245159310360270000011228088063564551301_);">
				<defs>
					<path id="XMLID_182_" d="M22.5,49.6c0,0,4.4-2.9,4.8,2.1c0,0,2.2,18.5,7.4,25.3c0,0-3.5,6.2-5,6.4c0,0-3.8,1.8-6-5.5
						C23.7,78,20.8,68.4,22.5,49.6"/>
				</defs>
				<clipPath id="XMLID_00000066516664759218971600000007115960513103364022_">
					<use xlink:href="#XMLID_182_"  style="overflow:visible;"/>
				</clipPath>
				<defs>
					
						<filter id="Adobe_OpacityMaskFilter_00000167355167697469087280000017300778140861523595_" filterUnits="userSpaceOnUse" x="20.7" y="46.6" width="14.2" height="38.7">
						<feColorMatrix  type="matrix" values="1 0 0 0 0  0 1 0 0 0  0 0 1 0 0  0 0 0 1 0"/>
					</filter>
				</defs>
				
					<mask maskUnits="userSpaceOnUse" x="20.7" y="46.6" width="14.2" height="38.7" id="XMLID_00000093172271509779967710000009163198662078468254_">
					<g id="XMLID_183_" style="filter:url(#Adobe_OpacityMaskFilter_00000167355167697469087280000017300778140861523595_);">
						
							<linearGradient id="XMLID_00000011011819943495317550000017409954716673145514_" gradientUnits="userSpaceOnUse" x1="494.623" y1="462.6907" x2="495.623" y2="462.6907" gradientTransform="matrix(12.6904 -4.695460e-02 -4.695460e-02 -12.6904 -6233.2939 5960.9795)">
							<stop  offset="0" style="stop-color:#000000"/>
							<stop  offset="1" style="stop-color:#FFFFFF"/>
						</linearGradient>
						
							<polygon id="XMLID_184_" style="clip-path:url(#XMLID_00000066516664759218971600000007115960513103364022_);fill:url(#XMLID_00000011011819943495317550000017409954716673145514_);" points="
							20.7,46.7 34.7,46.6 34.8,85.3 20.8,85.4 						"/>
					</g>
				</mask>
				
					<linearGradient id="XMLID_00000158710577136570597840000005649525067288581010_" gradientUnits="userSpaceOnUse" x1="494.623" y1="462.6907" x2="495.623" y2="462.6907" gradientTransform="matrix(12.6904 -4.695460e-02 -4.695460e-02 -12.6904 -6233.2939 5960.9795)">
					<stop  offset="0" style="stop-color:#FFFFFF"/>
					<stop  offset="1" style="stop-color:#3B3835"/>
				</linearGradient>
				
					<polygon id="XMLID_185_" style="clip-path:url(#XMLID_00000066516664759218971600000007115960513103364022_);mask:url(#XMLID_00000093172271509779967710000009163198662078468254_);fill:url(#XMLID_00000158710577136570597840000005649525067288581010_);" points="
					20.7,46.7 34.7,46.6 34.8,85.3 20.8,85.4 				"/>
			</g>
		</g>
	</g>
	<g id="XMLID_170_" style="clip-path:url(#XMLID_00000137130724285565254780000002380679595898277764_);">
		<g id="XMLID_171_">
			<defs>
				<rect id="XMLID_172_" x="43.5" y="48.5" width="35.5" height="35.1"/>
			</defs>
			<clipPath id="XMLID_00000140009695920486062340000008679036093377361549_">
				<use xlink:href="#XMLID_172_"  style="overflow:visible;"/>
			</clipPath>
			<g id="XMLID_173_" style="clip-path:url(#XMLID_00000140009695920486062340000008679036093377361549_);">
				<defs>
					<path id="XMLID_174_" d="M78.1,49.8c-1.1-0.8-2.6-1.5-4.2-1.2c-1.6,0.3-3,1.6-4.2,2.7c-2.2,2.1-4,4.5-5.5,7.1l0,0
						c0,0-0.1,0.1-0.2,0.3c-0.3,0.4-0.5,0.9-0.8,1.3c-1.7,2.9-5.1,8.8-5.7,10.5c-0.2,0.4-0.4,0.7-0.5,1.1c-0.3,0.6-0.3-0.3-0.4-1.1
						c-0.1-1.1-0.9-9.9-1.5-11.5c0,0,0,0,0,0c-0.5-2.7-1.2-5.3-2.6-7.5c-0.7-1.1-1.6-2.4-3.1-2.7c-1.5-0.3-3.3,0.5-4.7,1.3
						c-0.4,0.2-0.8,0.6-1.2,0.9c0.8,0.3,1.1,0.9,1.6,1.6c1.7,2.4,2.2,5.5,2.5,8.6l0.6,13.5c0.1,2.5,0.9,9,6.2,9.1
						c6.8-0.1,10.3-10.4,10.3-10.4l5.8-12.4c1.6-3.1,3.5-6.1,6.2-8.6c0.7-0.6,1.4-1.3,2.3-1.6C78.6,50.3,78.4,50,78.1,49.8"/>
				</defs>
				<clipPath id="XMLID_00000021101805677404321020000002457106517997146797_">
					<use xlink:href="#XMLID_174_"  style="overflow:visible;"/>
				</clipPath>
				<defs>
					
						<filter id="Adobe_OpacityMaskFilter_00000009547664602757101060000000699771410446623647_" filterUnits="userSpaceOnUse" x="43.3" y="48.1" width="35.7" height="35.6">
						<feColorMatrix  type="matrix" values="1 0 0 0 0  0 1 0 0 0  0 0 1 0 0  0 0 0 1 0"/>
					</filter>
				</defs>
				
					<mask maskUnits="userSpaceOnUse" x="43.3" y="48.1" width="35.7" height="35.6" id="XMLID_00000021803631744564422730000015225029272108384907_">
					<g id="XMLID_175_" style="filter:url(#Adobe_OpacityMaskFilter_00000009547664602757101060000000699771410446623647_);">
						
							<linearGradient id="XMLID_00000128463153696300304870000001064679635128568201_" gradientUnits="userSpaceOnUse" x1="538.5266" y1="463.5284" x2="539.5266" y2="463.5284" gradientTransform="matrix(35.4561 -0.1312 -0.1312 -35.4561 -18989.6973 16571.5156)">
							<stop  offset="0" style="stop-color:#000000"/>
							<stop  offset="1" style="stop-color:#FFFFFF"/>
						</linearGradient>
						
							<polygon id="XMLID_176_" style="clip-path:url(#XMLID_00000021101805677404321020000002457106517997146797_);fill:url(#XMLID_00000128463153696300304870000001064679635128568201_);" points="
							43.3,48.3 78.9,48.1 79.1,83.6 43.5,83.7 						"/>
					</g>
				</mask>
				
					<linearGradient id="XMLID_00000146484128498955919400000014898768764060377984_" gradientUnits="userSpaceOnUse" x1="538.5266" y1="463.5284" x2="539.5266" y2="463.5284" gradientTransform="matrix(35.4561 -0.1312 -0.1312 -35.4561 -18989.6973 16571.5156)">
					<stop  offset="0" style="stop-color:#FFFFFF"/>
					<stop  offset="1" style="stop-color:#3B3835"/>
				</linearGradient>
				
					<polygon id="XMLID_177_" style="clip-path:url(#XMLID_00000021101805677404321020000002457106517997146797_);mask:url(#XMLID_00000021803631744564422730000015225029272108384907_);fill:url(#XMLID_00000146484128498955919400000014898768764060377984_);" points="
					43.3,48.3 78.9,48.1 79.1,83.6 43.5,83.7 				"/>
			</g>
		</g>
	</g>
	<g id="XMLID_162_" style="clip-path:url(#XMLID_00000137130724285565254780000002380679595898277764_);">
		<g id="XMLID_163_">
			<defs>
				<rect id="XMLID_164_" x="95.5" y="48" width="13.2" height="14.8"/>
			</defs>
			<clipPath id="XMLID_00000016785035354597561490000006638137551581772928_">
				<use xlink:href="#XMLID_164_"  style="overflow:visible;"/>
			</clipPath>
			<g id="XMLID_165_" style="clip-path:url(#XMLID_00000016785035354597561490000006638137551581772928_);">
				<defs>
					<path id="XMLID_166_" d="M98.3,50.8c0,0,7.6-2.9,7.9-2.7l2.5,7.9c0,0-5.5,1.2-6.8,1.6c-4.6,1.7-3.9,5.1-3.8,5.3
						C93.1,54.8,96.6,51.7,98.3,50.8"/>
				</defs>
				<clipPath id="XMLID_00000096744955910486250310000015593152942255617925_">
					<use xlink:href="#XMLID_166_"  style="overflow:visible;"/>
				</clipPath>
				<defs>
					
						<filter id="Adobe_OpacityMaskFilter_00000162311682819380298790000017192763988874064006_" filterUnits="userSpaceOnUse" x="92.1" y="46.9" width="17.5" height="16.9">
						<feColorMatrix  type="matrix" values="1 0 0 0 0  0 1 0 0 0  0 0 1 0 0  0 0 0 1 0"/>
					</filter>
				</defs>
				
					<mask maskUnits="userSpaceOnUse" x="92.1" y="46.9" width="17.5" height="16.9" id="XMLID_00000112591507265011308700000010445072732187377574_">
					<g id="XMLID_167_" style="filter:url(#Adobe_OpacityMaskFilter_00000162311682819380298790000017192763988874064006_);">
						
							<linearGradient id="XMLID_00000124840604547147011690000007984975753828839088_" gradientUnits="userSpaceOnUse" x1="497.0756" y1="466.6042" x2="498.0756" y2="466.6042" gradientTransform="matrix(13.1293 -0.8208 -0.8208 -13.1293 -6047.7769 6589.8931)">
							<stop  offset="0" style="stop-color:#000000"/>
							<stop  offset="1" style="stop-color:#FFFFFF"/>
						</linearGradient>
						
							<polygon id="XMLID_168_" style="clip-path:url(#XMLID_00000096744955910486250310000015593152942255617925_);fill:url(#XMLID_00000124840604547147011690000007984975753828839088_);" points="
							92.1,48 108.6,46.9 109.6,62.7 93.1,63.8 						"/>
					</g>
				</mask>
				
					<linearGradient id="XMLID_00000040532973294983864280000015536153572535880098_" gradientUnits="userSpaceOnUse" x1="497.0756" y1="466.6042" x2="498.0756" y2="466.6042" gradientTransform="matrix(13.1293 -0.8208 -0.8208 -13.1293 -6047.7759 6589.8921)">
					<stop  offset="0" style="stop-color:#FFFFFF"/>
					<stop  offset="1" style="stop-color:#3B3835"/>
				</linearGradient>
				
					<polygon id="XMLID_169_" style="clip-path:url(#XMLID_00000096744955910486250310000015593152942255617925_);mask:url(#XMLID_00000112591507265011308700000010445072732187377574_);fill:url(#XMLID_00000040532973294983864280000015536153572535880098_);" points="
					92.1,48 108.6,46.9 109.6,62.7 93.1,63.8 				"/>
			</g>
		</g>
	</g>
	<g id="XMLID_154_" style="clip-path:url(#XMLID_00000137130724285565254780000002380679595898277764_);">
		<g id="XMLID_155_">
			<defs>
				<rect id="XMLID_156_" x="71.2" y="50.6" width="11" height="32.9"/>
			</defs>
			<clipPath id="XMLID_00000137104288626947630810000005374346561420772742_">
				<use xlink:href="#XMLID_156_"  style="overflow:visible;"/>
			</clipPath>
			<g id="XMLID_157_" style="clip-path:url(#XMLID_00000137104288626947630810000005374346561420772742_);">
				<defs>
					<path id="XMLID_158_" d="M78.9,50.6C78.9,50.6,78.9,50.6,78.9,50.6c-0.9,0.3-1.6,0.9-2.3,1.6c-2.3,2.1-4,4.6-5.5,7.2
						c0.4-0.4,2.6-2.1,3.1,2.7c0.6,5.3,1.7,17.5,2,18.6c0.4,1.3-0.2,4.1,5.5,2.1C81.8,82.9,83.7,55,78.9,50.6"/>
				</defs>
				<clipPath id="XMLID_00000025437043335428316820000017817647853581610421_">
					<use xlink:href="#XMLID_158_"  style="overflow:visible;"/>
				</clipPath>
				<defs>
					
						<filter id="Adobe_OpacityMaskFilter_00000042016143769016444900000008194658172688632704_" filterUnits="userSpaceOnUse" x="64.3" y="50.6" width="26.3" height="34.3">
						<feColorMatrix  type="matrix" values="1 0 0 0 0  0 1 0 0 0  0 0 1 0 0  0 0 0 1 0"/>
					</filter>
				</defs>
				
					<mask maskUnits="userSpaceOnUse" x="64.3" y="50.6" width="26.3" height="34.3" id="XMLID_00000085951145207492314790000015943051400456507816_">
					<g id="XMLID_159_" style="filter:url(#Adobe_OpacityMaskFilter_00000042016143769016444900000008194658172688632704_);">
						
							<linearGradient id="XMLID_00000116939787140689234320000007579470972791144127_" gradientUnits="userSpaceOnUse" x1="506.7118" y1="462.8617" x2="507.7118" y2="462.8617" gradientTransform="matrix(15.3545 -5.681160e-02 3.0939 -15.3668 -9142.8311 7209.2383)">
							<stop  offset="0" style="stop-color:#000000"/>
							<stop  offset="1" style="stop-color:#FFFFFF"/>
						</linearGradient>
						
							<polygon id="XMLID_160_" style="clip-path:url(#XMLID_00000025437043335428316820000017817647853581610421_);fill:url(#XMLID_00000116939787140689234320000007579470972791144127_);" points="
							71.2,50.6 90.6,50.6 83.7,84.8 64.3,84.9 						"/>
					</g>
				</mask>
				
					<linearGradient id="XMLID_00000173128234050180483450000017294139905973011388_" gradientUnits="userSpaceOnUse" x1="506.7118" y1="462.8617" x2="507.7118" y2="462.8617" gradientTransform="matrix(15.3545 -5.681160e-02 3.0939 -15.3668 -9142.833 7209.2393)">
					<stop  offset="0" style="stop-color:#FFFFFF"/>
					<stop  offset="1" style="stop-color:#3B3835"/>
				</linearGradient>
				
					<polygon id="XMLID_161_" style="clip-path:url(#XMLID_00000025437043335428316820000017817647853581610421_);mask:url(#XMLID_00000085951145207492314790000015943051400456507816_);fill:url(#XMLID_00000173128234050180483450000017294139905973011388_);" points="
					71.2,50.6 90.6,50.6 83.7,84.8 64.3,84.9 				"/>
			</g>
		</g>
	</g>
</g>
<g id="XMLID_149_">
	<defs>
		<path id="XMLID_150_" d="M105.4,44.7c-0.3,0.3-0.4,0.8-0.3,1.2l3.1,12.1c0.1,0.4,0.4,0.7,0.8,0.9c0.1,0,0.2,0,0.3,0
			c0.3,0,0.6-0.1,0.8-0.3l8.2-8.3c0.3-0.3,0.4-0.7,0.3-1.2c-0.1-0.4-0.4-0.8-0.8-0.9l-11.3-3.8c-0.1,0-0.2-0.1-0.4-0.1
			C106,44.4,105.7,44.5,105.4,44.7"/>
	</defs>
	<clipPath id="XMLID_00000109728396150722411950000000321307655991465613_">
		<use xlink:href="#XMLID_150_"  style="overflow:visible;"/>
	</clipPath>
	
		<linearGradient id="XMLID_00000077298072558463859550000014214000886990074762_" gradientUnits="userSpaceOnUse" x1="554.0665" y1="463.7935" x2="555.0665" y2="463.7935" gradientTransform="matrix(97.1248 0 0 -97.1248 -53796.1523 45097.5312)">
		<stop  offset="0" style="stop-color:#8AC064"/>
		<stop  offset="0.5419" style="stop-color:#51BCBB"/>
		<stop  offset="0.9901" style="stop-color:#146CB5"/>
		<stop  offset="1" style="stop-color:#146CB5"/>
	</linearGradient>
	
		<rect id="XMLID_151_" x="105" y="44.4" style="clip-path:url(#XMLID_00000109728396150722411950000000321307655991465613_);fill:url(#XMLID_00000077298072558463859550000014214000886990074762_);" width="13.8" height="14.6"/>
</g>
<g id="XMLID_139_">
	<defs>
		<rect id="XMLID_140_" x="-304.7" y="-111.2" width="841.9" height="595.3"/>
	</defs>
	<clipPath id="XMLID_00000037659297702133589920000000253353581132211356_">
		<use xlink:href="#XMLID_140_"  style="overflow:visible;"/>
	</clipPath>
	<g id="XMLID_141_" style="clip-path:url(#XMLID_00000037659297702133589920000000253353581132211356_);">
		<g id="XMLID_142_">
			<defs>
				<rect id="XMLID_143_" x="105.1" y="44.4" width="13.6" height="14.6"/>
			</defs>
			<clipPath id="XMLID_00000170989508907282553310000011257186969179025592_">
				<use xlink:href="#XMLID_143_"  style="overflow:visible;"/>
			</clipPath>
			<g id="XMLID_144_" style="clip-path:url(#XMLID_00000170989508907282553310000011257186969179025592_);">
				<defs>
					<path id="XMLID_145_" d="M118.7,49.1c-0.1-0.4-0.4-0.8-0.8-0.9l-11.3-3.8c-0.4-0.1-0.8,0-1.1,0.3c-0.3,0.3-0.4,0.8-0.3,1.2
						l3.1,12.1c0.1,0.4,0.4,0.7,0.8,0.9c0.1,0,0.2,0,0.3,0c0.3,0,0.6-0.1,0.8-0.3l8.2-8.3C118.6,50,118.8,49.5,118.7,49.1"/>
				</defs>
				<clipPath id="XMLID_00000093859711193144753750000010541870303578922119_">
					<use xlink:href="#XMLID_145_"  style="overflow:visible;"/>
				</clipPath>
				<defs>
					
						<filter id="Adobe_OpacityMaskFilter_00000013889647422733332840000009954310920171987098_" filterUnits="userSpaceOnUse" x="104.7" y="43.9" width="14.5" height="15.4">
						<feColorMatrix  type="matrix" values="1 0 0 0 0  0 1 0 0 0  0 0 1 0 0  0 0 0 1 0"/>
					</filter>
				</defs>
				
					<mask maskUnits="userSpaceOnUse" x="104.7" y="43.9" width="14.5" height="15.4" id="XMLID_00000147182968338280264570000005206899355030589061_">
					<g id="XMLID_146_" style="filter:url(#Adobe_OpacityMaskFilter_00000013889647422733332840000009954310920171987098_);">
						
							<linearGradient id="XMLID_00000182498131496858372310000016710867870836277143_" gradientUnits="userSpaceOnUse" x1="499.7906" y1="460.9856" x2="500.7906" y2="460.9856" gradientTransform="matrix(13.7107 0.3388 0.3388 -13.7107 -6903.7158 6202.5986)">
							<stop  offset="0" style="stop-color:#000000"/>
							<stop  offset="1" style="stop-color:#FFFFFF"/>
						</linearGradient>
						
							<polygon id="XMLID_147_" style="clip-path:url(#XMLID_00000093859711193144753750000010541870303578922119_);fill:url(#XMLID_00000182498131496858372310000016710867870836277143_);" points="
							105,43.9 119.1,44.3 118.8,59.3 104.7,59 						"/>
					</g>
				</mask>
				
					<linearGradient id="XMLID_00000078004921931190505470000013791933640304502446_" gradientUnits="userSpaceOnUse" x1="499.7906" y1="460.9856" x2="500.7906" y2="460.9856" gradientTransform="matrix(13.7107 0.3388 0.3388 -13.7107 -6903.7158 6202.5986)">
					<stop  offset="0" style="stop-color:#FFFFFF"/>
					<stop  offset="1" style="stop-color:#3B3835"/>
				</linearGradient>
				
					<polygon id="XMLID_148_" style="clip-path:url(#XMLID_00000093859711193144753750000010541870303578922119_);mask:url(#XMLID_00000147182968338280264570000005206899355030589061_);fill:url(#XMLID_00000078004921931190505470000013791933640304502446_);" points="
					105,43.9 119.1,44.3 118.8,59.3 104.7,59 				"/>
			</g>
		</g>
	</g>
</g>
</svg>
