<?xml version="1.0" encoding="utf-8"?>
<!-- Generator: Adobe Illustrator 26.0.1, SVG Export Plug-In . SVG Version: 6.00 Build 0)  -->
<svg version="1.1" id="Layer_1" xmlns="http://www.w3.org/2000/svg" xmlns:xlink="http://www.w3.org/1999/xlink" x="0px" y="0px"
	 viewBox="0 0 536.9 128" style="enable-background:new 0 0 536.9 128;" xml:space="preserve">
<style type="text/css">
	
		.st0{clip-path:url(#XMLID_00000053503948394240724790000007254826476196259519_);fill:url(#XMLID_00000005950070128834050050000008862276506833533588_);}
	
		.st1{clip-path:url(#XMLID_00000009551410527944991510000013054057191595998858_);fill:url(#XMLID_00000163757108379055819070000015082021435839622045_);}
	
		.st2{clip-path:url(#XMLID_00000080910532146573794210000014651606667281628300_);fill:url(#XMLID_00000181775546979882637510000001486541284506699697_);}
	
		.st3{clip-path:url(#XMLID_00000019675744829324339910000009365596857821192099_);fill:url(#XMLID_00000119811300749108144100000012951940668732045978_);}
	
		.st4{clip-path:url(#XMLID_00000142151483902903363470000001493376356313193602_);fill:url(#XMLID_00000009592233489198850820000002772416032576395423_);}
	
		.st5{clip-path:url(#XMLID_00000123418400524114785690000014277016928675344030_);fill:url(#XMLID_00000005956773699741137780000017134820818117196989_);}
	
		.st6{clip-path:url(#XMLID_00000152986650739023728450000009493806953998610828_);fill:url(#XMLID_00000137847103847613669000000013588176106197065386_);}
	
		.st7{clip-path:url(#XMLID_00000098937589713955875500000016023657913470337703_);fill:url(#XMLID_00000055700696789218524510000006009616589122367626_);}
	
		.st8{clip-path:url(#XMLID_00000045611335820346446780000015755269146053356192_);fill:url(#XMLID_00000057112278828025982310000008042369706136989825_);}
	.st9{fill:#333433;}
	.st10{fill:none;stroke:#333433;stroke-width:0.9296;stroke-miterlimit:10;}
</style>
<g>
	<g id="XMLID_105_">
		<defs>
			<path id="XMLID_106_" d="M128.1,85.6c0,0-13.6,4.3-16.3,7.8l5.1,9.3c0-0.4,16.3-6.5,17.1-7.3c1.1-1.2,4.7-3.9,0.4-11.1
				c-0.8-1.4-1.5-2.7-2.2-3.9C132.1,81.5,131.4,83.8,128.1,85.6"/>
		</defs>
		<clipPath id="XMLID_00000009569795767623308340000008222582091808941243_">
			<use xlink:href="#XMLID_106_"  style="overflow:visible;"/>
		</clipPath>
		
			<linearGradient id="XMLID_00000163040892321403403260000009111510325152058555_" gradientUnits="userSpaceOnUse" x1="-128.7039" y1="372.6281" x2="-127.1151" y2="372.6281" gradientTransform="matrix(96.5955 0 0 -96.5955 12434.3672 36085.707)">
			<stop  offset="0" style="stop-color:#80C270"/>
			<stop  offset="0.5419" style="stop-color:#46BFBB"/>
			<stop  offset="0.803" style="stop-color:#0777BC"/>
			<stop  offset="0.9901" style="stop-color:#2F368F"/>
			<stop  offset="1" style="stop-color:#2F368F"/>
		</linearGradient>
		
			<rect id="XMLID_109_" x="111.8" y="80.4" style="clip-path:url(#XMLID_00000009569795767623308340000008222582091808941243_);fill:url(#XMLID_00000163040892321403403260000009111510325152058555_);" width="26.9" height="22.3"/>
	</g>
	<g id="XMLID_100_">
		<defs>
			<path id="XMLID_101_" d="M137.5,50.5c-14.7,6-10.1,18.5-10.1,18.5c0.9,3,2.7,8,7,15.2c4.3,7.3,0.4,10.4-0.4,11.1
				c-0.9,0.8-17.1,6.9-17.1,7.3c0,0.4,21.8-7.3,21.8-7.3c3.3-2.4,18.4-7.6,6.5-25.8c-11-16.8-0.7-21.5,0.9-22.1L137.5,50.5z
				 M146.1,47.5l0.2-0.1C146.4,47.4,146.3,47.4,146.1,47.5"/>
		</defs>
		<clipPath id="XMLID_00000082335968033325682670000015149684628225612219_">
			<use xlink:href="#XMLID_101_"  style="overflow:visible;"/>
		</clipPath>
		
			<linearGradient id="XMLID_00000170239783739378382560000007056793428337974176_" gradientUnits="userSpaceOnUse" x1="-128.7041" y1="372.6893" x2="-127.1152" y2="372.6893" gradientTransform="matrix(96.5879 0 0 -96.5879 12433.415 36072.5234)">
			<stop  offset="0" style="stop-color:#80C270"/>
			<stop  offset="0.5419" style="stop-color:#46BFBB"/>
			<stop  offset="0.803" style="stop-color:#0777BC"/>
			<stop  offset="0.9901" style="stop-color:#2F368F"/>
			<stop  offset="1" style="stop-color:#2F368F"/>
		</linearGradient>
		
			<rect id="XMLID_104_" x="116.9" y="47.4" style="clip-path:url(#XMLID_00000082335968033325682670000015149684628225612219_);fill:url(#XMLID_00000170239783739378382560000007056793428337974176_);" width="40.2" height="55.7"/>
	</g>
	<g id="XMLID_95_">
		<defs>
			<path id="XMLID_96_" d="M15.8,46c0,0-5.2,66.8,13.5,56.7l8.2-11.3c0,0-7.6-5-11.8-31l-1.8-10.7c0,0-0.1-5.1-3.9-5.1
				C18.9,44.6,17.5,45,15.8,46"/>
		</defs>
		<clipPath id="XMLID_00000170258909893465675320000014195003663170163590_">
			<use xlink:href="#XMLID_96_"  style="overflow:visible;"/>
		</clipPath>
		
			<linearGradient id="XMLID_00000134244618627962249300000005556181436930692741_" gradientUnits="userSpaceOnUse" x1="-128.7039" y1="372.6477" x2="-127.115" y2="372.6477" gradientTransform="matrix(96.5979 0 0 -96.5979 12434.6807 36075.6953)">
			<stop  offset="0" style="stop-color:#80C270"/>
			<stop  offset="0.5419" style="stop-color:#46BFBB"/>
			<stop  offset="0.803" style="stop-color:#0777BC"/>
			<stop  offset="0.9901" style="stop-color:#2F368F"/>
			<stop  offset="1" style="stop-color:#2F368F"/>
		</linearGradient>
		
			<rect id="XMLID_99_" x="10.6" y="44.6" style="clip-path:url(#XMLID_00000170258909893465675320000014195003663170163590_);fill:url(#XMLID_00000134244618627962249300000005556181436930692741_);" width="26.9" height="68.2"/>
	</g>
	<g id="XMLID_92_">
		<defs>
			<path id="XMLID_93_" d="M22.3,27.4c-3.6,0-7.1,2.8-7.9,6.2c-0.7,3.4,1.6,6.2,5.2,6.2c3.6,0,7.1-2.8,7.9-6.2
				C28.2,30.2,25.9,27.4,22.3,27.4C22.3,27.4,22.3,27.4,22.3,27.4"/>
		</defs>
		<clipPath id="XMLID_00000128481494761705836580000008385834978400556190_">
			<use xlink:href="#XMLID_93_"  style="overflow:visible;"/>
		</clipPath>
		
			<linearGradient id="XMLID_00000054956500465976994840000013785208848746577025_" gradientUnits="userSpaceOnUse" x1="-128.7038" y1="372.8499" x2="-127.1149" y2="372.8499" gradientTransform="matrix(96.6031 0 0 -96.6031 12435.3301 36052.0938)">
			<stop  offset="0" style="stop-color:#80C270"/>
			<stop  offset="0.5419" style="stop-color:#46BFBB"/>
			<stop  offset="0.803" style="stop-color:#0777BC"/>
			<stop  offset="0.9901" style="stop-color:#2F368F"/>
			<stop  offset="1" style="stop-color:#2F368F"/>
		</linearGradient>
		
			<rect id="XMLID_94_" x="13.7" y="27.4" style="clip-path:url(#XMLID_00000128481494761705836580000008385834978400556190_);fill:url(#XMLID_00000054956500465976994840000013785208848746577025_);" width="14.5" height="12.4"/>
	</g>
	<g id="XMLID_89_">
		<defs>
			<path id="XMLID_90_" d="M22.3,102.4c5.8,4.7,9.3-1.9,11-4.2c1.4-2,13-21.6,17.8-30.6c4.4-8.2,6.9-5.2,7.3-4.6
				c-0.6-4.4-1.6-8.7-4-12.2c-0.7-1.1-1.3-2.2-2.7-2.6c-0.1,0-0.1,0-0.1,0C40.3,55.6,22.3,102.4,22.3,102.4"/>
		</defs>
		<clipPath id="XMLID_00000163055327535311465030000004907509763516220837_">
			<use xlink:href="#XMLID_90_"  style="overflow:visible;"/>
		</clipPath>
		
			<linearGradient id="XMLID_00000128449180730657922200000014556520395352573874_" gradientUnits="userSpaceOnUse" x1="-128.7042" y1="372.6715" x2="-127.1153" y2="372.6715" gradientTransform="matrix(96.5822 0 0 -96.5822 12432.6855 36071.0586)">
			<stop  offset="0" style="stop-color:#80C270"/>
			<stop  offset="0.5419" style="stop-color:#46BFBB"/>
			<stop  offset="0.803" style="stop-color:#0777BC"/>
			<stop  offset="0.9901" style="stop-color:#2F368F"/>
			<stop  offset="1" style="stop-color:#2F368F"/>
		</linearGradient>
		
			<rect id="XMLID_91_" x="22.3" y="48.1" style="clip-path:url(#XMLID_00000163055327535311465030000004907509763516220837_);fill:url(#XMLID_00000128449180730657922200000014556520395352573874_);" width="36" height="59"/>
	</g>
	<g id="XMLID_84_">
		<defs>
			<path id="XMLID_85_" d="M145,48L145,48c-2.9,1.6-9,6.9-0.5,20.5c-0.1-0.2-1.3-6.1,6.5-9c2.2-0.6,11.6-2.7,11.6-2.7l-4.2-13.5
				c0,0,0,0,0,0C157.4,43.3,145,48,145,48"/>
		</defs>
		<clipPath id="XMLID_00000152977259103365366810000017220765599701411203_">
			<use xlink:href="#XMLID_85_"  style="overflow:visible;"/>
		</clipPath>
		
			<linearGradient id="XMLID_00000109028048634183587020000011843786001373221534_" gradientUnits="userSpaceOnUse" x1="-128.7038" y1="372.7646" x2="-127.115" y2="372.7646" gradientTransform="matrix(96.6021 0 0 -96.6021 12435.1982 36065.7656)">
			<stop  offset="0" style="stop-color:#80C270"/>
			<stop  offset="0.5419" style="stop-color:#46BFBB"/>
			<stop  offset="0.803" style="stop-color:#0777BC"/>
			<stop  offset="0.9901" style="stop-color:#2F368F"/>
			<stop  offset="1" style="stop-color:#2F368F"/>
		</linearGradient>
		
			<rect id="XMLID_86_" x="136.1" y="43.3" style="clip-path:url(#XMLID_00000152977259103365366810000017220765599701411203_);fill:url(#XMLID_00000109028048634183587020000011843786001373221534_);" width="26.6" height="25.2"/>
	</g>
	<g id="XMLID_81_">
		<defs>
			<path id="XMLID_82_" d="M103.4,44.2c-2.7,0.5-5.2,2.7-7.2,4.6c-3.8,3.6-6.8,7.7-9.5,12.1l0,0c0,0-0.1,0.2-0.3,0.5
				c-0.4,0.7-0.9,1.5-1.3,2.2c-2.8,4.9-8.6,14.9-9.8,17.8c-0.3,0.6-0.6,1.3-0.9,1.9c-0.6,0.9-0.5-0.5-0.7-1.9
				c-0.2-1.8-1.6-16.9-2.5-19.6c0,0,0,0,0,0c-0.8-4.6-2.1-9-4.4-12.8c-1.2-1.9-2.7-4.1-5.2-4.6c-2.6-0.5-5.6,0.8-8.1,2.1
				c-0.7,0.4-1.4,1-2.1,1.5c1.4,0.4,1.9,1.6,2.7,2.7c2.9,4.1,3.8,9.3,4.3,14.6l1.1,23c0.1,4.2,1.5,15.4,10.5,15.5
				c11.6-0.2,17.5-17.7,17.5-17.7l9.9-21.1c2.7-5.3,5.9-10.5,10.6-14.6c1.2-1.1,2.3-2.2,3.8-2.7c-0.5-0.5-0.9-1.1-1.4-1.5
				c-1.6-1.1-3.6-2.2-5.9-2.2C104.2,44.1,103.8,44.2,103.4,44.2"/>
		</defs>
		<clipPath id="XMLID_00000166641362840025647610000000387612156319818663_">
			<use xlink:href="#XMLID_82_"  style="overflow:visible;"/>
		</clipPath>
		
			<linearGradient id="XMLID_00000013872774277684530650000006055404225621078164_" gradientUnits="userSpaceOnUse" x1="-128.7041" y1="372.696" x2="-127.1152" y2="372.696" gradientTransform="matrix(96.5876 0 0 -96.5876 12433.3711 36071.7461)">
			<stop  offset="0" style="stop-color:#80C270"/>
			<stop  offset="0.5419" style="stop-color:#46BFBB"/>
			<stop  offset="0.803" style="stop-color:#0777BC"/>
			<stop  offset="0.9901" style="stop-color:#2F368F"/>
			<stop  offset="1" style="stop-color:#2F368F"/>
		</linearGradient>
		
			<rect id="XMLID_83_" x="51.6" y="44" style="clip-path:url(#XMLID_00000166641362840025647610000000387612156319818663_);fill:url(#XMLID_00000013872774277684530650000006055404225621078164_);" width="60.4" height="59.9"/>
	</g>
	<g id="XMLID_78_">
		<defs>
			<path id="XMLID_79_" d="M111.9,47.8c-1.5,0.5-2.6,1.6-3.8,2.7c-3.9,3.5-6.8,7.9-9.3,12.3c0.7-0.6,4.4-3.6,5.3,4.6
				c1,9,2.9,29.8,3.5,31.7c0.7,2.3-0.3,6.9,9.3,3.6C116.9,102.7,120.1,55.2,111.9,47.8C112,47.8,112,47.8,111.9,47.8"/>
		</defs>
		<clipPath id="XMLID_00000153694482033608023570000004040081585622195380_">
			<use xlink:href="#XMLID_79_"  style="overflow:visible;"/>
		</clipPath>
		
			<linearGradient id="XMLID_00000086676454388355242890000006734431028879289006_" gradientUnits="userSpaceOnUse" x1="-128.7042" y1="372.6772" x2="-127.1153" y2="372.6772" gradientTransform="matrix(96.5814 0 0 -96.5814 12432.5928 36070.5898)">
			<stop  offset="0" style="stop-color:#80C270"/>
			<stop  offset="0.5419" style="stop-color:#46BFBB"/>
			<stop  offset="0.803" style="stop-color:#0777BC"/>
			<stop  offset="0.9901" style="stop-color:#2F368F"/>
			<stop  offset="1" style="stop-color:#2F368F"/>
		</linearGradient>
		
			<rect id="XMLID_80_" x="98.8" y="47.8" style="clip-path:url(#XMLID_00000153694482033608023570000004040081585622195380_);fill:url(#XMLID_00000086676454388355242890000006734431028879289006_);" width="21.2" height="58.2"/>
	</g>
	<g id="XMLID_9_">
		<defs>
			<path id="XMLID_10_" d="M157.1,37.7c-0.5,0.5-0.7,1.3-0.5,2.1l5.2,20.7c0.2,0.7,0.7,1.3,1.4,1.5c0.2,0,0.3,0.1,0.5,0.1
				c0.5,0,1-0.2,1.4-0.6l14-14.2c0.5-0.5,0.7-1.3,0.6-2c-0.2-0.7-0.7-1.3-1.3-1.5l-19.3-6.5c-0.2-0.1-0.4-0.1-0.6-0.1
				C158,37.1,157.5,37.3,157.1,37.7"/>
		</defs>
		<clipPath id="XMLID_00000078042169432854739790000013427217315524186508_">
			<use xlink:href="#XMLID_10_"  style="overflow:visible;"/>
		</clipPath>
		
			<linearGradient id="XMLID_00000026853655780115181090000015134180595212201405_" gradientUnits="userSpaceOnUse" x1="-128.5384" y1="372.7079" x2="-126.9495" y2="372.7079" gradientTransform="matrix(104.122 0 0 -104.122 13390.9521 38856.6445)">
			<stop  offset="0" style="stop-color:#80C270"/>
			<stop  offset="0.5419" style="stop-color:#46BFBB"/>
			<stop  offset="0.9901" style="stop-color:#0D72B9"/>
			<stop  offset="1" style="stop-color:#0D72B9"/>
		</linearGradient>
		
			<rect id="XMLID_11_" x="156.4" y="37.1" style="clip-path:url(#XMLID_00000078042169432854739790000013427217315524186508_);fill:url(#XMLID_00000026853655780115181090000015134180595212201405_);" width="23.4" height="24.9"/>
	</g>
</g>
<g>
	<g>
		<path class="st9" d="M227.5,60.9V34.3h8.7v26.6H227.5z"/>
		<path class="st9" d="M240.9,41.6h7v3c1.7-2.3,3.6-3.6,6.5-3.6c5.1,0,7.5,3,7.5,8.3v11.6h-7.7V50.7c0-1.9-0.5-3.6-2.7-3.6
			c-2.4,0-3,1.5-3,4v9.9h-7.7V41.6z"/>
		<path class="st9" d="M265.5,41.6h7v3c1.7-2.3,3.6-3.6,6.5-3.6c5.1,0,7.5,3,7.5,8.3v11.6h-7.7V50.7c0-1.9-0.5-3.6-2.7-3.6
			c-2.4,0-3,1.5-3,4v9.9h-7.7V41.6z"/>
		<path class="st9" d="M300.7,41c6.8,0,11,4,11,10.1c0,7.1-4.8,10.4-11,10.4s-11-3.4-11-10C289.7,44.8,294.2,41,300.7,41z
			 M297.4,51.1c0,3.7,1.4,5.2,3.3,5.2c2.1,0,3.3-1.6,3.3-5.2c0-2.8-1.3-5-3.3-4.9C298.2,46.2,297.4,48.9,297.4,51.1z"/>
		<path class="st9" d="M313.4,41.6h7.7l3.4,12.2l3.4-12.2h7.4l-6.5,19.4h-8.6L313.4,41.6z"/>
		<path class="st9" d="M351.1,60.9l-0.4-2.1c-2.2,2-4.4,2.6-7.3,2.6c-3.7,0-6.9-1.8-6.9-5.8c0-8.8,13.8-4.8,13.8-8.4
			c0-1.4-1.7-1.6-2.5-1.6c-1.1,0-2.5,0.2-2.7,1.9h-7.4c0-4.1,2.9-6.5,10.6-6.5c9.2,0,9.7,3.4,9.7,8v9.1c0,1.1,0,1.7,1,2.5v0.4H351.1
			z M350.4,52.4c-2.5,1.2-5.8,0.6-5.8,3.1c0,1,0.9,1.6,2.4,1.6C349.7,57.1,350.6,55,350.4,52.4z"/>
		<path class="st9" d="M374.9,60.9c-10.1,0.6-11.3-0.1-11.3-6.8V46h-2.7v-4.4h2.8v-6h7.6v6h3.7V46h-3.7v7c0,1.8,0.3,2.4,2.4,2.4h1.2
			V60.9z"/>
		<path class="st9" d="M379,33.6h7.7v5.5H379V33.6z M379,60.9V41.6h7.7v19.4H379z"/>
		<path class="st9" d="M401.3,41c6.8,0,11,4,11,10.1c0,7.1-4.8,10.4-11,10.4s-11-3.4-11-10C390.3,44.8,394.8,41,401.3,41z M398,51.1
			c0,3.7,1.4,5.2,3.3,5.2c2.1,0,3.3-1.6,3.3-5.2c0-2.8-1.3-5-3.3-4.9C398.8,46.2,398,48.9,398,51.1z"/>
		<path class="st9" d="M415.5,41.6h7v3c1.7-2.3,3.6-3.6,6.5-3.6c5.1,0,7.5,3,7.5,8.3v11.6h-7.7V50.7c0-1.9-0.5-3.6-2.7-3.6
			c-2.4,0-3,1.5-3,4v9.9h-7.7V41.6z"/>
	</g>
</g>
<g>
	<g>
		<path class="st9" d="M226.9,73.6h4.1l6.1,18.4l6-18.4h4.1v21.8h-2.7V82.5c0-0.4,0-1.2,0-2.2c0-1,0-2.1,0-3.3l-6,18.4h-2.8
			L229.6,77v0.7c0,0.5,0,1.3,0,2.4s0,1.9,0,2.4v12.9h-2.7V73.6z"/>
		<path class="st9" d="M259.5,85.7c0.6-0.1,1-0.3,1.2-0.8c0.1-0.2,0.2-0.6,0.2-1c0-0.9-0.3-1.6-0.9-2c-0.6-0.4-1.5-0.6-2.7-0.6
			c-1.4,0-2.3,0.4-2.9,1.1c-0.3,0.4-0.5,1-0.6,1.9h-2.4c0-2,0.7-3.3,1.9-4.1c1.2-0.8,2.6-1.1,4.1-1.1c1.8,0,3.3,0.4,4.4,1.1
			c1.1,0.7,1.7,1.8,1.7,3.3v9.2c0,0.3,0.1,0.5,0.2,0.7s0.3,0.3,0.7,0.3c0.1,0,0.2,0,0.4,0s0.3,0,0.5-0.1v2c-0.4,0.1-0.7,0.2-0.9,0.2
			c-0.2,0-0.5,0-0.9,0c-0.9,0-1.5-0.3-1.9-1c-0.2-0.3-0.4-0.8-0.4-1.5c-0.5,0.7-1.3,1.3-2.3,1.9c-1,0.5-2.1,0.8-3.3,0.8
			c-1.4,0-2.6-0.4-3.5-1.3c-0.9-0.9-1.4-2-1.4-3.4c0-1.5,0.4-2.6,1.3-3.4s2.1-1.3,3.5-1.5L259.5,85.7z M254.1,93
			c0.5,0.4,1.2,0.7,1.9,0.7c0.9,0,1.8-0.2,2.7-0.7c1.4-0.7,2.2-1.9,2.2-3.5v-2.2c-0.3,0.2-0.7,0.4-1.2,0.5c-0.5,0.1-1,0.2-1.5,0.3
			l-1.6,0.2c-0.9,0.1-1.6,0.3-2.1,0.6c-0.8,0.5-1.2,1.2-1.2,2.2C253.3,91.9,253.5,92.5,254.1,93z"/>
		<path class="st9" d="M267.7,79.5h2.5v2.3c0.7-0.9,1.5-1.6,2.3-2c0.8-0.4,1.7-0.6,2.7-0.6c2.2,0,3.7,0.8,4.4,2.4
			c0.4,0.9,0.6,2.1,0.6,3.7v10.2h-2.6v-10c0-1-0.1-1.8-0.4-2.3c-0.5-1-1.3-1.5-2.5-1.5c-0.6,0-1.1,0.1-1.5,0.2
			c-0.7,0.2-1.3,0.7-1.9,1.3c-0.4,0.5-0.7,1.1-0.8,1.6s-0.2,1.4-0.2,2.4v8.3h-2.6V79.5z"/>
		<path class="st9" d="M292.4,85.7c0.6-0.1,1-0.3,1.2-0.8c0.1-0.2,0.2-0.6,0.2-1c0-0.9-0.3-1.6-0.9-2c-0.6-0.4-1.5-0.6-2.7-0.6
			c-1.4,0-2.3,0.4-2.9,1.1c-0.3,0.4-0.5,1-0.6,1.9h-2.4c0-2,0.7-3.3,1.9-4.1c1.2-0.8,2.6-1.1,4.1-1.1c1.8,0,3.3,0.4,4.4,1.1
			c1.1,0.7,1.7,1.8,1.7,3.3v9.2c0,0.3,0.1,0.5,0.2,0.7s0.3,0.3,0.7,0.3c0.1,0,0.2,0,0.4,0s0.3,0,0.5-0.1v2c-0.4,0.1-0.7,0.2-0.9,0.2
			c-0.2,0-0.5,0-0.9,0c-0.9,0-1.5-0.3-1.9-1c-0.2-0.3-0.4-0.8-0.4-1.5c-0.5,0.7-1.3,1.3-2.3,1.9c-1,0.5-2.1,0.8-3.3,0.8
			c-1.4,0-2.6-0.4-3.5-1.3c-0.9-0.9-1.4-2-1.4-3.4c0-1.5,0.4-2.6,1.3-3.4s2.1-1.3,3.5-1.5L292.4,85.7z M286.9,93
			c0.5,0.4,1.2,0.7,1.9,0.7c0.9,0,1.8-0.2,2.7-0.7c1.4-0.7,2.2-1.9,2.2-3.5v-2.2c-0.3,0.2-0.7,0.4-1.2,0.5c-0.5,0.1-1,0.2-1.5,0.3
			l-1.6,0.2c-0.9,0.1-1.6,0.3-2.1,0.6c-0.8,0.5-1.2,1.2-1.2,2.2C286.1,91.9,286.4,92.5,286.9,93z"/>
		<path class="st9" d="M309.2,80.1c0.5,0.3,1,0.9,1.5,1.5v-2h2.4v14.4c0,2-0.3,3.6-0.9,4.8c-1.1,2.2-3.1,3.2-6.1,3.2
			c-1.7,0-3.1-0.4-4.2-1.1c-1.1-0.8-1.8-2-1.9-3.6h2.6c0.1,0.7,0.4,1.3,0.8,1.6c0.6,0.6,1.5,0.9,2.8,0.9c2,0,3.3-0.7,3.9-2.2
			c0.4-0.9,0.5-2.4,0.5-4.6c-0.5,0.8-1.1,1.4-1.9,1.8s-1.7,0.6-2.9,0.6c-1.7,0-3.1-0.6-4.4-1.8c-1.3-1.2-1.9-3.2-1.9-6.1
			c0-2.7,0.6-4.7,1.9-6.2c1.3-1.5,2.8-2.2,4.6-2.2C307.2,79.2,308.3,79.5,309.2,80.1z M309.5,83c-0.8-0.9-1.8-1.4-3-1.4
			c-1.8,0-3.1,0.9-3.7,2.6c-0.4,0.9-0.5,2.2-0.5,3.7c0,1.8,0.4,3.2,1.1,4.1s1.7,1.4,2.8,1.4c1.9,0,3.2-0.9,3.9-2.6
			c0.4-1,0.6-2.1,0.6-3.4C310.7,85.4,310.3,83.9,309.5,83z"/>
		<path class="st9" d="M326.6,79.9c1,0.5,1.8,1.2,2.4,2.1c0.5,0.8,0.9,1.7,1,2.8c0.2,0.7,0.2,1.9,0.2,3.5h-11.3
			c0,1.6,0.4,2.9,1.1,3.9c0.7,1,1.8,1.5,3.2,1.5c1.4,0,2.4-0.5,3.2-1.4c0.5-0.5,0.8-1.2,1-1.9h2.6c-0.1,0.6-0.3,1.2-0.7,2
			s-0.8,1.3-1.3,1.8c-0.8,0.8-1.8,1.3-2.9,1.6c-0.6,0.2-1.3,0.2-2.1,0.2c-1.9,0-3.6-0.7-4.9-2.2c-1.3-1.4-2-3.5-2-6
			c0-2.6,0.7-4.6,2-6.2c1.3-1.6,3.1-2.4,5.3-2.4C324.5,79.1,325.6,79.4,326.6,79.9z M327.5,86.2c-0.1-1.2-0.4-2.1-0.7-2.8
			c-0.7-1.3-1.9-1.9-3.6-1.9c-1.2,0-2.2,0.4-3,1.3c-0.8,0.9-1.2,2-1.3,3.4H327.5z"/>
		<path class="st9" d="M333.4,79.5h2.6v2.3c0.6-0.8,1.2-1.4,1.7-1.7c0.9-0.6,1.8-0.9,2.9-0.9c1.2,0,2.2,0.3,3,0.9
			c0.4,0.4,0.8,0.9,1.2,1.6c0.6-0.8,1.3-1.5,2-1.9c0.8-0.4,1.7-0.6,2.6-0.6c2.1,0,3.5,0.8,4.2,2.3c0.4,0.8,0.6,1.9,0.6,3.4v10.6
			h-2.7v-11c0-1.1-0.3-1.8-0.8-2.2c-0.5-0.4-1.1-0.6-1.9-0.6c-1,0-1.9,0.4-2.6,1.1s-1.1,1.9-1.1,3.5v9.2h-2.6V85
			c0-1.1-0.1-1.9-0.4-2.4c-0.4-0.7-1.1-1.1-2.2-1.1c-1,0-1.9,0.4-2.7,1.2s-1.2,2.2-1.2,4.2v8.4h-2.6V79.5z"/>
		<path class="st9" d="M367.6,79.9c1,0.5,1.8,1.2,2.4,2.1c0.5,0.8,0.9,1.7,1,2.8c0.2,0.7,0.2,1.9,0.2,3.5h-11.3
			c0,1.6,0.4,2.9,1.1,3.9c0.7,1,1.8,1.5,3.2,1.5c1.4,0,2.4-0.5,3.2-1.4c0.5-0.5,0.8-1.2,1-1.9h2.6c-0.1,0.6-0.3,1.2-0.7,2
			s-0.8,1.3-1.3,1.8c-0.8,0.8-1.8,1.3-2.9,1.6c-0.6,0.2-1.3,0.2-2.1,0.2c-1.9,0-3.6-0.7-4.9-2.2c-1.3-1.4-2-3.5-2-6
			c0-2.6,0.7-4.6,2-6.2c1.3-1.6,3.1-2.4,5.3-2.4C365.5,79.1,366.6,79.4,367.6,79.9z M368.6,86.2c-0.1-1.2-0.4-2.1-0.7-2.8
			c-0.7-1.3-1.9-1.9-3.6-1.9c-1.2,0-2.2,0.4-3,1.3c-0.8,0.9-1.2,2-1.3,3.4H368.6z"/>
		<path class="st9" d="M374.4,79.5h2.5v2.3c0.7-0.9,1.5-1.6,2.3-2c0.8-0.4,1.7-0.6,2.7-0.6c2.2,0,3.7,0.8,4.4,2.4
			c0.4,0.9,0.6,2.1,0.6,3.7v10.2h-2.6v-10c0-1-0.1-1.8-0.4-2.3c-0.5-1-1.3-1.5-2.5-1.5c-0.6,0-1.1,0.1-1.5,0.2
			c-0.7,0.2-1.3,0.7-1.9,1.3c-0.4,0.5-0.7,1.1-0.8,1.6c-0.1,0.6-0.2,1.4-0.2,2.4v8.3h-2.6V79.5z"/>
		<path class="st9" d="M391.4,75h2.6v4.4h2.5v2.2H394V92c0,0.6,0.2,0.9,0.5,1.1c0.2,0.1,0.5,0.2,1,0.2c0.1,0,0.3,0,0.4,0
			c0.1,0,0.3,0,0.5,0v2.1c-0.3,0.1-0.6,0.2-0.9,0.2c-0.3,0-0.7,0.1-1,0.1c-1.2,0-2-0.3-2.5-1c-0.4-0.6-0.6-1.5-0.6-2.5V81.7h-2.1
			v-2.2h2.1V75z"/>
		<path class="st9" d="M409.5,88.3c0.1,1.2,0.4,2.2,0.9,3c1,1.4,2.6,2.2,5,2.2c1.1,0,2.1-0.2,2.9-0.5c1.7-0.6,2.6-1.7,2.6-3.3
			c0-1.2-0.4-2-1.1-2.5c-0.7-0.5-1.9-0.9-3.4-1.3l-2.9-0.7c-1.9-0.4-3.2-0.9-4-1.4c-1.3-0.9-2-2.3-2-4.1c0-2,0.7-3.6,2-4.8
			c1.3-1.3,3.2-1.9,5.6-1.9c2.2,0,4.1,0.6,5.7,1.7s2.3,2.9,2.3,5.3h-2.7c-0.1-1.2-0.5-2.1-0.9-2.7c-0.9-1.1-2.4-1.7-4.5-1.7
			c-1.7,0-2.9,0.4-3.6,1.1c-0.7,0.7-1.1,1.6-1.1,2.6c0,1.1,0.4,1.8,1.3,2.3c0.6,0.3,1.9,0.7,3.9,1.2l3,0.7c1.4,0.3,2.5,0.8,3.3,1.4
			c1.3,1,2,2.5,2,4.4c0,2.4-0.9,4.1-2.6,5.2c-1.7,1-3.7,1.6-5.9,1.6c-2.6,0-4.7-0.7-6.2-2.1c-1.5-1.4-2.2-3.2-2.2-5.6H409.5z"/>
		<path class="st9" d="M438.2,81.1c1.4,1.4,2.1,3.4,2.1,6c0,2.6-0.6,4.7-1.8,6.3c-1.2,1.7-3.1,2.5-5.6,2.5c-2.1,0-3.8-0.7-5.1-2.2
			s-1.9-3.5-1.9-6c0-2.7,0.7-4.8,2-6.4c1.3-1.6,3.1-2.4,5.3-2.4C435.2,79,436.9,79.7,438.2,81.1z M436.6,91.6c0.6-1.3,1-2.8,1-4.5
			c0-1.5-0.2-2.7-0.7-3.6c-0.7-1.5-2-2.2-3.8-2.2c-1.6,0-2.7,0.6-3.5,1.9c-0.7,1.2-1.1,2.7-1.1,4.5c0,1.7,0.4,3.1,1.1,4.2
			c0.7,1.1,1.9,1.7,3.4,1.7C434.8,93.6,436,93,436.6,91.6z"/>
		<path class="st9" d="M443.5,73.6h2.6v21.8h-2.6V73.6z"/>
		<path class="st9" d="M452.5,79.5V90c0,0.8,0.1,1.5,0.4,2c0.5,0.9,1.3,1.4,2.6,1.4c1.8,0,3-0.8,3.7-2.5c0.4-0.9,0.5-2.1,0.5-3.7
			v-7.8h2.6v15.9h-2.5l0-2.3c-0.3,0.6-0.8,1.1-1.3,1.5c-1,0.8-2.2,1.2-3.6,1.2c-2.2,0-3.7-0.8-4.5-2.3c-0.4-0.8-0.6-1.9-0.6-3.2
			V79.5H452.5z"/>
		<path class="st9" d="M466.9,75h2.6v4.4h2.5v2.2h-2.5V92c0,0.6,0.2,0.9,0.5,1.1c0.2,0.1,0.5,0.2,1,0.2c0.1,0,0.3,0,0.4,0
			c0.1,0,0.3,0,0.5,0v2.1c-0.3,0.1-0.6,0.2-0.9,0.2c-0.3,0-0.7,0.1-1,0.1c-1.2,0-2-0.3-2.5-1c-0.4-0.6-0.6-1.5-0.6-2.5V81.7h-2.1
			v-2.2h2.1V75z"/>
		<path class="st9" d="M474.6,73.6h2.6v3h-2.6V73.6z M474.6,79.6h2.6v15.8h-2.6V79.6z"/>
		<path class="st9" d="M492.4,81.1c1.4,1.4,2.1,3.4,2.1,6c0,2.6-0.6,4.7-1.8,6.3c-1.2,1.7-3.1,2.5-5.6,2.5c-2.1,0-3.8-0.7-5.1-2.2
			s-1.9-3.5-1.9-6c0-2.7,0.7-4.8,2-6.4c1.3-1.6,3.1-2.4,5.3-2.4C489.4,79,491,79.7,492.4,81.1z M490.8,91.6c0.6-1.3,1-2.8,1-4.5
			c0-1.5-0.2-2.7-0.7-3.6c-0.7-1.5-2-2.2-3.8-2.2c-1.6,0-2.7,0.6-3.5,1.9c-0.7,1.2-1.1,2.7-1.1,4.5c0,1.7,0.4,3.1,1.1,4.2
			c0.7,1.1,1.9,1.7,3.4,1.7C489,93.6,490.2,93,490.8,91.6z"/>
		<path class="st9" d="M497.6,79.5h2.5v2.3c0.7-0.9,1.5-1.6,2.3-2c0.8-0.4,1.7-0.6,2.7-0.6c2.2,0,3.7,0.8,4.4,2.4
			c0.4,0.9,0.6,2.1,0.6,3.7v10.2h-2.6v-10c0-1-0.1-1.8-0.4-2.3c-0.5-1-1.3-1.5-2.5-1.5c-0.6,0-1.1,0.1-1.5,0.2
			c-0.7,0.2-1.3,0.7-1.9,1.3c-0.4,0.5-0.7,1.1-0.8,1.6c-0.1,0.6-0.2,1.4-0.2,2.4v8.3h-2.6V79.5z"/>
		<path class="st9" d="M515.5,90.4c0.1,0.9,0.3,1.6,0.6,2c0.7,0.9,1.8,1.3,3.4,1.3c1,0,1.8-0.2,2.5-0.6c0.7-0.4,1.1-1.1,1.1-2
			c0-0.7-0.3-1.2-0.9-1.6c-0.4-0.2-1.1-0.5-2.2-0.8l-2.1-0.5c-1.3-0.3-2.3-0.7-2.9-1.1c-1.1-0.7-1.7-1.7-1.7-3
			c0-1.5,0.5-2.7,1.6-3.6c1.1-0.9,2.5-1.4,4.2-1.4c2.3,0,4,0.7,5,2.1c0.6,0.9,1,1.8,0.9,2.9h-2.5c0-0.6-0.3-1.2-0.6-1.6
			c-0.6-0.7-1.6-1.1-3.1-1.1c-1,0-1.7,0.2-2.2,0.6s-0.8,0.9-0.8,1.5c0,0.7,0.3,1.2,1,1.7c0.4,0.2,1,0.5,1.7,0.7l1.7,0.4
			c1.9,0.5,3.1,0.9,3.7,1.3c1,0.7,1.5,1.8,1.5,3.2c0,1.4-0.5,2.6-1.6,3.7s-2.6,1.5-4.8,1.5c-2.3,0-3.9-0.5-4.9-1.6
			c-1-1.1-1.5-2.4-1.5-4H515.5z"/>
	</g>
</g>
<line class="st10" x1="200.6" y1="30.6" x2="200.6" y2="104.4"/>
</svg>
